# xmcd
#
# Track frame offsets: 
#        200
#        15747
#        32790
#        56442
#        77850
#        100720
#        117892
#        135787
#        147177
#        169745
#
# Disc length: 2584 seconds
#
# Revision: 2
# Processed by: cddbd v1.5.2PL0 Copyright (c) Steve Scherf et al.
# Submitted via: ExactAudioCopy v0.99pb5
#
DISCID=760a160a
DTITLE=Roy Rogers - Blues on the Range
DYEAR=1989
DGENRE=Blues
TTITLE0=Black Cat Bone
TTITLE1=Crawfish City
TTITLE2=Blues On The Range
TTITLE3=Baby, Please Don't Go
TTITLE4=You Better Run
TTITLE5=Spanish Blues
TTITLE6=She's Cold As Ice
TTITLE7=Dreamin' At The Juke
TTITLE8=Hellhound On My Trail
TTITLE9=Ramblin' Blues
EXTD=
EXTT0=
EXTT1=
EXTT2=
EXTT3=
EXTT4=
EXTT5=
EXTT6=
EXTT7=
EXTT8=
EXTT9=
PLAYORDER=
